# AST/ASF file generated using VICON BodyLanguage
# -----------------------------------------------
:version 1.10
:name VICON
:units
  mass 1.0
  length 0.45
  angle deg
:documentation
   .ast/.asf automatically generated from VICON data using
   VICON BodyBuilder and BodyLanguage model FoxedUp or BRILLIANT.MOD
:root
   order TX TY TZ RX RY RZ
   axis XYZ
   position 0 0 0  
   orientation 0 0 0 
:bonedata
  begin
     id 1 
     name lhipjoint
     direction 0.64773 -0.699417 0.302095 
     length 2.48597 
     axis 0 0 0  XYZ
  end
  begin
     id 2 
     name lfemur
     direction 0.34202 -0.939693 0  
     length 6.71947  
     axis 0 0 20  XYZ
    dof rx ry rz
    limits (-160.0 20.0)
           (-70.0 70.0)
           (-60.0 70.0)
  end
  begin
     id 3 
     name ltibia
     direction 0.34202 -0.939693 0   
     length 8.08777   
     axis 0 0 20   XYZ
    dof rx
    limits (-10.0 170.0)
  end
  begin
     id 4 
     name lfoot
     direction 0.0808503 -0.222134 0.971658   
     length 2.08264   
     axis -90 7.62852e-016 20   XYZ
    dof rx rz
    limits (-45.0 90.0)
           (-70.0 20.0)
  end
  begin
     id 5 
     name ltoes
     direction 1.53502e-011 -4.22007e-011 1   
     length 1.04662   
     axis -90 7.62852e-016 20   XYZ
    dof rx
    limits (-90.0 20.0)
  end
  begin
     id 6 
     name rhipjoint
     direction -0.610924 -0.726792 0.313919   
     length 2.39233  
     axis 0 0 0  XYZ 
  end
  begin
     id 7 
     name rfemur
     direction -0.34202 -0.939693 0   
     length 6.96955   
     axis 0 0 -20   XYZ
    dof rx ry rz
    limits (-160.0 20.0)
           (-70.0 70.0)
           (-70.0 60.0)
  end
  begin
     id 8 
     name rtibia
     direction -0.34202 -0.939693 0   
     length 8.19584   
     axis 0 0 -20   XYZ
    dof rx
    limits (-10.0 170.0)
 end
 begin
     id 9 
     name rfoot
     direction -0.077777 -0.213691 0.9738   
     length 2.07539  
     axis -90 -7.62852e-016 -20   XYZ
    dof rx rz
    limits (-45.0 90.0)
           (-20.0 70.0)
  end
  begin
     id 10 
     name rtoes
     direction -1.53558e-011 -4.22006e-011 1   
     length 1.04381   
     axis -90 -7.62852e-016 -20   XYZ
    dof rx
    limits (-90.0 20.0)
  end
  begin
     id 11 
     name lowerback
     direction -0.00971646 0.996074 0.0879841   
     length 1.67643   
     axis 0 0 0   XYZ
    dof rx ry rz
    limits (-20.0 45.0)
           (-30.0 30.0)
           (-30.0 30.0)
  end
  begin
     id 12 
     name upperback
     direction 0.0127391 0.991676 0.128127   
     length 1.63741   
     axis 0 0 0   XYZ
    dof rx ry rz
    limits (-20.0 45.0)
           (-30.0 30.0)
           (-30.0 30.0)
  end
  begin
     id 13 
     name thorax
     direction 0.0167583 0.996049 0.0872067   
     length 1.65931   
     axis 0 0 0   XYZ
    dof rx ry rz
    limits (-20.0 45.0)
           (-30.0 30.0)
           (-30.0 30.0)
  end
  begin
     id 14 
     name lowerneck
     direction -0.0317829 0.998312 0.0486079   
     length 1.79021   
     axis 0 0 0   XYZ
    dof rx ry rz
    limits (-20.0 45.0)
           (-30.0 30.0)
           (-30.0 30.0)
  end
  begin
     id 15 
     name upperneck
     direction 0.0896851 0.972452 -0.215159   
     length 1.78797   
     axis 0 0 0   XYZ
    dof rx ry rz
    limits (-20.0 45.0)
           (-30.0 30.0)
           (-30.0 30.0)
  end
  begin
     id 16
     name head
     direction 0.0310949 0.996503 -0.0775582  
     length 1.81549  
     axis 0 0 0   XYZ
    dof rx ry rz
    limits (-20.0 45.0)
           (-30.0 30.0)
           (-30.0 30.0)
  end
  begin
     id 17 
     name lclavicle
     direction 0.853638 0.502051 -0.138733  
     length 3.31627  
     axis 0 0 0   XYZ
    dof ry rz
    limits (-20.0 10.0)
           (0.0 20.0)
  end
  begin
     id 18 
     name lhumerus
     direction 1 -4.48962e-011 -1.41788e-018   
     length 5.54893   
     axis 180 -30 -90   XYZ
    dof rx ry rz
    limits (-60.0 90.0)
           (-90.0 90.0)
           (-90.0 90.0)
  end
  begin
     id 19
     name lradius
     direction 1 -4.48962e-011 -4.95754e-027   
     length 3.02898   
     axis 180 -30 -90   XYZ
    dof rx
    limits (-10.0 170.0)
  end
  begin
     id 20
     name lwrist
     direction 1 -4.48952e-011 -1.03764e-026   
     length 1.51449   
     axis 9.09556e-015 90 90   XYZ
    dof ry
    limits (-180.0 0.0)
 end
  begin
     id 21 
     name lhand
     direction 1 -4.4902e-011 -2.07528e-026   
     length 0.640951   
     axis 1.3242e-014 90 90   XYZ
    dof rx rz
    limits (-90.0 90.0)
           (-45.0 45.0)
  end
  begin
     id 22 
     name lfingers
     direction 1 -4.49014e-011 -4.15056e-026   
     length 0.516751   
     axis 2.64841e-014 90 90   XYZ
    dof rx
    limits (0.0 90.0)
  end
  begin
     id 23
     name lthumb
     direction 0.707107 -6.35008e-011 0.707107   
     length 0.741954   
     axis -90 45 2.85299e-015   XYZ
    dof rx rz
    limits (-45.0 45.0)
           (-45.0 45.0)
  end
  begin
     id 24 
     name rclavicle
     direction -0.888531 0.455324 -0.0565039   
     length 3.20126  
     axis 0 0 0   XYZ 
    dof ry rz
    limits (-10.0 20.0)
           (-20.0 0.0)
  end
  begin
     id 25 
     name rhumerus
     direction -1 -4.48946e-011 -8.98298e-028  
     length 5.3519   
     axis 180 30 90   XYZ
    dof rx ry rz
    limits (-90.0 60.0)
           (-90.0 90.0)
           (-90.0 90.0)
  end
  begin
     id 26 
     name rradius
     direction -1 -4.4899e-011 -3.18779e-027   
     length 3.02531   
     axis 180 30 90   XYZ
    dof rx
    limits (-10.0 170.0)
  end
  begin
     id 27 
     name rwrist
     direction -1 -4.4897e-011 -1.03764e-026   
     length 1.51266   
     axis 9.09556e-015 -90 -90   XYZ
    dof ry
    limits (-180.0 0.0)
  end
  begin
     id 28
     name rhand
     direction -1 -4.48941e-011 -2.07528e-026   
     length 0.78389   
     axis 1.3242e-014 -90 -90   XYZ
    dof rx rz
    limits (-90.0 90.0)
           (-45.0 45.0)
  end
  begin
     id 29
     name rfingers
     direction -1 -4.49012e-011 -4.15056e-026   
     length 0.631992   
     axis 2.64841e-014 -90 -90   XYZ
    dof rx
    limits (0.0 90.0)
  end
  begin
     id 30
     name rthumb
     direction -0.707107 -6.3496e-011 0.707107   
     length 0.907418   
     axis -90 -45 -2.85299e-015   XYZ
    dof rx rz
    limits (-45.0 45.0)
           (-45.0 45.0)
  end
:hierarchy
  begin
    root lhipjoint rhipjoint lowerback
    lhipjoint lfemur
    lfemur ltibia
    ltibia lfoot
    lfoot ltoes
    rhipjoint rfemur
    rfemur rtibia
    rtibia rfoot
    rfoot rtoes
    lowerback upperback
    upperback thorax
    thorax lowerneck lclavicle rclavicle
    lowerneck upperneck
    upperneck head
    lclavicle lhumerus
    lhumerus lradius
    lradius lwrist
    lwrist lhand lthumb
    lhand lfingers
    rclavicle rhumerus
    rhumerus rradius
    rradius rwrist
    rwrist rhand rthumb
    rhand rfingers
  end

#!OML:ASF E:\Style3\Style3.ASF
:FULLY-SPECIFIED
:DEGREES
3378
root 0.19773 17.7583 -0.155081 194.927 44.3345 535.784
lowerback -9.03783 0.458304 -3.28255
upperback -10.2981 1.71199 -0.126929
thorax -5.81162 1.47916 1.72432
lowerneck -9.61238 -2.65363 -8.45391
upperneck 11.8969 -3.97087 14.3395
head 5.61889 -1.21642 5.67795
rclavicle 5.53118e-014 2.74323e-014
rhumerus 1.199 36.7959 -63.4491
rradius 115.253
rwrist 1.3539
rhand 52.3871 10.7843
rfingers 7.12502
rthumb 71.4299 20.2515
lclavicle 5.53118e-014 2.74323e-014
lhumerus -6.09971 -33.0493 70.6757
lradius 110.687
lwrist 12.0843
lhand 35.0671 35.5201
lfingers 7.12502
lthumb 58.1956 51.0647
rfemur -7.64092 4.04473 17.5161
rtibia 11.0105
rfoot -33.907 -40.5325
rtoes 11.2491
lfemur -25.6084 -32.2513 -8.49367
ltibia 5.74676
lfoot -3.2288 -1.76427
ltoes -15.8246
3379
root 0.197179 17.7638 -0.172858 195.12 44.7041 535.777
lowerback -9.17869 0.432611 -3.6393
upperback -10.2399 1.70073 0.0608219
thorax -5.68978 1.49941 2.12568
lowerneck -9.49235 -2.62197 -8.63524
upperneck 11.4236 -3.87345 14.3061
head 5.44317 -1.20335 5.69593
rclavicle -3.72721e-014 1.98785e-014
rhumerus 1.40559 36.1935 -63.0579
rradius 115.971
rwrist 0.876425
rhand 53.1094 10.4607
rfingers 7.12502
rthumb 71.8405 21.7181
lclavicle -3.72721e-014 1.98785e-014
lhumerus -5.28558 -31.8263 70.3042
lradius 111.376
lwrist 11.939
lhand 35.4306 33.9875
lfingers 7.12502
lthumb 58.5117 49.2408
rfemur -8.00201 4.03192 17.3925
rtibia 11.2314
rfoot -33.8453 -40.2705
rtoes 11.4262
lfemur -25.3929 -31.9859 -8.63759
ltibia 5.28603
lfoot -3.04941 -1.75477
ltoes -16.3966
3380
root 0.196086 17.7701 -0.187548 195.441 45.1317 535.916
lowerback -9.09791 0.458592 -3.6193
upperback -10.3408 1.73967 0.0904602
thorax -5.84783 1.52683 2.14151
lowerneck -9.37618 -2.53306 -8.68902
upperneck 11.1553 -3.73717 14.3773
head 5.32638 -1.14742 5.7343
rclavicle 7.26558e-014 1.70955e-014
rhumerus 1.2449 35.4153 -63.2295
rradius 116.787
rwrist 0.445356
rhand 52.3914 9.60595
rfingers 7.12502
rthumb 71.4324 19.0835
lclavicle 7.26558e-014 1.70955e-014
lhumerus -4.61337 -30.875 69.7873
lradius 112.131
lwrist 12.5135
lhand 34.0628 33.6564
lfingers 7.12502
lthumb 57.3178 49.9745
rfemur -8.43411 4.09878 17.3567
rtibia 11.4366
rfoot -33.6919 -40.0997
rtoes 11.2703
lfemur -25.1776 -31.6277 -8.68053
ltibia 4.82023
lfoot -2.89664 -1.69925
ltoes -17.0781
3381
root 0.19003 17.7781 -0.199101 195.766 45.6233 536.097
lowerback -8.81779 0.55942 -3.45344
upperback -10.5342 1.86841 0.0469551
thorax -6.21585 1.59381 1.99261
lowerneck -9.18734 -2.45708 -8.67221
upperneck 11.0245 -3.63918 14.4433
head 5.24238 -1.10385 5.75844
rclavicle 6.30644e-014 1.11319e-014
rhumerus 0.994658 34.3198 -63.4801
rradius 117.58
rwrist 0.0745863
rhand 50.655 8.96132
rfingers 7.12502
rthumb 70.3744 14.4595
lclavicle 6.30644e-014 1.11319e-014
lhumerus -4.01131 -30.0266 69.2486
lradius 112.901
lwrist 13.3767
lhand 32.4728 33.7798
lfingers 7.12502
lthumb 55.9153 51.235
rfemur -8.8404 4.19639 17.3363
rtibia 11.596
rfoot -33.4901 -39.8796
rtoes 11.2791
lfemur -24.9563 -31.2054 -8.73413
ltibia 4.42177
lfoot -2.7846 -1.58877
ltoes -17.2631
3382
root 0.183849 17.785 -0.211824 196.029 46.0855 536.189
lowerback -8.53104 0.616371 -3.325
upperback -10.7431 1.94195 -0.0208421
thorax -6.60236 1.63507 1.83546
lowerneck -8.99522 -2.36228 -8.50724
upperneck 10.9915 -3.5262 14.3463
head 5.18024 -1.05522 5.70596
rclavicle 2.90226e-014 1.98785e-015
rhumerus 0.768532 32.9801 -63.7311
rradius 118.416
rwrist -0.246608
rhand 49.2499 9.56443
rfingers 7.12502
rthumb 69.4531 12.16
lclavicle 2.90226e-014 1.98785e-015
lhumerus -3.45342 -29.0841 68.6078
lradius 113.561
lwrist 14.3766
lhand 30.5466 33.2905
lfingers 7.12502
lthumb 54.1977 51.994
rfemur -9.20903 4.25502 17.2516
rtibia 11.729
rfoot -33.286 -39.6026
rtoes 11.3441
lfemur -24.7543 -30.8321 -8.84731
ltibia 4.03836
lfoot -2.6557 -1.47603
ltoes -17.476
3383
root 0.177128 17.7913 -0.225184 196.421 46.4469 536.406
lowerback -8.38381 0.620053 -3.19508
upperback -10.8815 1.94824 -0.00355822
thorax -6.83345 1.63994 1.77177
lowerneck -8.88831 -2.23235 -8.29106
upperneck 10.9191 -3.35761 14.1668
head 5.11242 -0.982407 5.62063
rclavicle 4.18193e-014 -1.68967e-014
rhumerus 0.679051 31.5038 -63.8605
rradius 119.419
rwrist -0.636678
rhand 47.6728 9.81068
rfingers 7.12502
rthumb 68.3596 9.45873
lclavicle 4.18193e-014 -1.68967e-014
lhumerus -2.77393 -28.1024 67.9163
lradius 114.162
lwrist 15.237
lhand 28.0161 32.5958
lfingers 7.12502
lthumb 51.9148 52.752
rfemur -9.58443 4.22991 17.2841
rtibia 11.8301
rfoot -32.8642 -39.4311
rtoes 10.8457
lfemur -24.6543 -30.513 -8.79638
ltibia 3.668
lfoot -2.49718 -1.37862
ltoes -17.849
3384
root 0.171804 17.7979 -0.237284 196.798 46.7862 536.572
lowerback -8.35682 0.577178 -3.13667
upperback -10.9686 1.89786 0.0616845
thorax -6.94219 1.61973 1.80307
lowerneck -8.81633 -2.05766 -8.09474
upperneck 10.8269 -3.12117 13.9645
head 5.03729 -0.879271 5.53575
rclavicle -4.05024e-014 -1.21259e-014
rhumerus 0.84789 29.9914 -63.7631
rradius 120.404
rwrist -1.24729
rhand 45.9394 9.72985
rfingers 7.12502
rthumb 67.0955 6.4803
lclavicle -4.05024e-014 -1.21259e-014
lhumerus -2.17926 -26.9935 67.3181
lradius 114.734
lwrist 15.6528
lhand 24.9778 31.8109
lfingers 7.12502
lthumb 49.1407 53.4734
rfemur -9.93568 4.3075 17.2626
rtibia 11.8607
rfoot -32.4872 -39.2695
rtoes 10.6059
lfemur -24.6676 -30.2107 -8.73221
ltibia 3.43219
lfoot -2.40027 -1.28329
ltoes -17.7679
3385
root 0.167195 17.8071 -0.248693 197.192 47.1399 536.789
lowerback -8.32518 0.517265 -3.07977
upperback -11.0597 1.82775 0.187584
thorax -7.05962 1.59281 1.89864
lowerneck -8.82353 -1.91739 -8.02236
upperneck 10.8757 -2.93562 13.8839
head 5.02915 -0.790727 5.51118
rclavicle 8.05078e-015 8.34896e-015
rhumerus 1.12905 28.6013 -63.6267
rradius 121.362
rwrist -2.31972
rhand 44.2828 9.13158
rfingers 7.12502
rthumb 65.8358 3.41066
lclavicle 8.05078e-015 8.34896e-015
lhumerus -1.77414 -25.8707 66.7717
lradius 115.188
lwrist 16.1355
lhand 21.5468 31.1693
lfingers 7.12502
lthumb 45.9732 54.275
rfemur -10.247 4.5628 17.2552
rtibia 11.8593
rfoot -32.4155 -39.1102
rtoes 10.8958
lfemur -24.6943 -29.8801 -8.63429
ltibia 3.2596
lfoot -2.33183 -1.19048
ltoes -17.6088
3386
root 0.1649 17.8159 -0.260455 197.527 47.4803 537.006
lowerback -8.35665 0.488095 -3.0411
upperback -11.0712 1.79152 0.289987
thorax -7.05512 1.57626 1.98501
lowerneck -8.76654 -1.83106 -8.00053
upperneck 10.7264 -2.81516 13.9181
head 4.96004 -0.735458 5.52422
rclavicle -3.28989e-014 3.97569e-015
rhumerus 1.51388 27.13 -63.4398
rradius 122.205
rwrist -3.58693
rhand 42.0781 7.93158
rfingers 7.12502
rthumb 64.0938 -0.685243
lclavicle -3.28989e-014 3.97569e-015
lhumerus -1.26486 -24.877 66.2999
lradius 115.497
lwrist 16.4137
lhand 18.9033 30.8786
lfingers 7.12502
lthumb 43.5121 54.9411
rfemur -10.4388 4.812 17.249
rtibia 11.7914
rfoot -32.2614 -38.9703
rtoes 11.071
lfemur -24.7373 -29.5749 -8.56295
ltibia 3.25306
lfoot -2.34987 -1.08049
ltoes -17.5414
3387
root 0.160135 17.8229 -0.273527 197.801 47.8007 537.196
lowerback -8.32356 0.484937 -2.95807
upperback -11.0635 1.77904 0.332443
thorax -7.06302 1.56312 1.98268
lowerneck -8.76998 -1.76026 -7.85604
upperneck 10.5862 -2.71987 13.8539
head 4.90448 -0.691583 5.48229
rclavicle -1.86361e-014 8.74653e-015
rhumerus 1.90172 25.7829 -63.2884
rradius 122.751
rwrist -4.29366
rhand 38.8488 7.4499
rfingers 7.12502
rthumb 61.4342 -4.73113
lclavicle -1.86361e-014 8.74653e-015
lhumerus -0.844184 -24.2106 66.0727
lradius 115.655
lwrist 15.9465
lhand 16.6917 30.7676
lfingers 7.12502
lthumb 41.4416 55.542
rfemur -10.5526 4.77701 17.2391
rtibia 11.6362
rfoot -31.1329 -39.0617
rtoes 9.72222
lfemur -24.9075 -29.3086 -8.52293
ltibia 3.4847
lfoot -2.41878 -1.00135
ltoes -18.3742
3388
root 0.154743 17.8292 -0.283927 198.162 48.1139 537.484
lowerback -8.28867 0.358223 -2.84123
upperback -11.0908 1.61077 0.530282
thorax -7.10577 1.47947 2.12153
lowerneck -8.91055 -1.53761 -7.82666
upperneck 10.7482 -2.42045 13.7596
head 4.94147 -0.543866 5.47086
rclavicle -7.0171e-014 -3.69739e-014
rhumerus 2.19324 25.2308 -63.2414
rradius 123.3
rwrist -4.40129
rhand 35.0022 7.14487
rfingers 7.12502
rthumb 58.1391 -8.4511
lclavicle -7.0171e-014 -3.69739e-014
lhumerus -0.903657 -23.4262 65.9841
lradius 115.707
lwrist 15.3968
lhand 14.163 30.4372
lfingers 7.12502
lthumb 39.0632 55.9391
rfemur -10.6439 4.90185 17.2861
rtibia 11.4317
rfoot -30.4359 -38.989
rtoes 9.33186
lfemur -25.1924 -29.0194 -8.38853
ltibia 3.82623
lfoot -2.51934 -0.872289
ltoes -19.124
3389
root 0.151275 17.8359 -0.295342 198.58 48.4247 537.92
lowerback -8.26499 0.18302 -2.60629
upperback -11.1302 1.38093 0.826854
thorax -7.15088 1.36175 2.29778
lowerneck -8.92199 -1.207 -7.88016
upperneck 10.9517 -1.97058 13.6525
head 4.95204 -0.331207 5.48028
rclavicle -6.21202e-014 -4.45278e-014
rhumerus 2.33532 24.9949 -63.2683
rradius 124.046
rwrist -4.50314
rhand 31.8 6.50925
rfingers 7.12502
rthumb 55.3175 -11.3973
lclavicle -6.21202e-014 -4.45278e-014
lhumerus -1.36756 -22.5468 65.993
lradius 115.848
lwrist 15.0141
lhand 12.0125 29.8837
lfingers 7.12502
lthumb 37.0326 55.9397
rfemur -10.6923 5.13632 17.4217
rtibia 11.2714
rfoot -30.0991 -38.7939
rtoes 9.44169
lfemur -25.2973 -28.7082 -8.19963
ltibia 4.04027
lfoot -2.67061 -0.724962
ltoes -18.7805
3390
root 0.149321 17.8422 -0.306931 198.869 48.7426 538.254
lowerback -8.15727 0.00385132 -2.46597
upperback -11.1946 1.1492 1.11583
thorax -7.27308 1.25216 2.51729
lowerneck -8.79586 -0.906995 -8.01002
upperneck 11.1013 -1.56341 13.6552
head 4.92878 -0.14003 5.53338
rclavicle 9.18385e-014 3.10104e-014
rhumerus 2.46384 24.7982 -63.2409
rradius 124.667
rwrist -4.4837
rhand 29.0253 6.25889
rfingers 7.12502
rthumb 52.8285 -13.3414
lclavicle 9.18385e-014 3.10104e-014
lhumerus -2.06761 -21.8978 66.226
lradius 115.922
lwrist 14.1325
lhand 11.363 29.5718
lfingers 7.12502
lthumb 36.4179 55.7846
rfemur -10.6835 5.35444 17.501
rtibia 11.1578
rfoot -29.7199 -38.6258
rtoes 9.45963
lfemur -25.2255 -28.422 -8.12148
ltibia 4.11872
lfoot -2.78549 -0.642937
ltoes -18.574
3391
root 0.144036 17.8471 -0.318855 199.01 49.0452 538.424
lowerback -8.01694 -0.179994 -2.4041
upperback -11.2312 0.906627 1.36562
thorax -7.38188 1.1387 2.74065
lowerneck -8.67042 -0.659909 -8.19824
upperneck 11.1569 -1.22703 13.7962
head 4.88583 0.0217919 5.6343
rclavicle -9.7156e-014 -4.92986e-014
rhumerus 2.70793 24.7729 -63.0478
rradius 124.935
rwrist -4.03401
rhand 25.8492 6.83554
rfingers 7.12502
rthumb 49.9397 -14.4188
lclavicle -9.7156e-014 -4.92986e-014
lhumerus -2.75407 -21.4254 66.601
lradius 115.878
lwrist 13.1924
lhand 11.7455 29.7469
lfingers 7.12502
lthumb 36.78 55.8679
rfemur -10.6933 5.39814 17.4744
rtibia 11.1056
rfoot -28.9472 -38.5592
rtoes 8.2371
lfemur -25.0846 -28.1978 -8.17398
ltibia 4.08018
lfoot -2.76228 -0.576409
ltoes -18.5858
3392
root 0.138816 17.8515 -0.328137 199.044 49.3511 538.459
lowerback -8.02525 -0.328174 -2.38879
upperback -11.1535 0.698338 1.52252
thorax -7.27922 1.03123 2.8969
lowerneck -8.53548 -0.439518 -8.39438
upperneck 10.9897 -0.920194 14.0457
head 4.77669 0.170559 5.76408
rclavicle -4.7112e-014 -1.23246e-014
rhumerus 2.94627 24.8635 -62.8378
rradius 125.143
rwrist -3.13505
rhand 22.7719 7.39866
rfingers 7.12502
rthumb 47.1081 -15.2198
lclavicle -4.7112e-014 -1.23246e-014
lhumerus -3.11922 -21.2622 66.9269
lradius 115.609
lwrist 12.3828
lhand 11.7024 30.2324
lfingers 7.12502
lthumb 36.7392 56.3638
rfemur -10.7729 5.61656 17.3203
rtibia 11.1659
rfoot -28.8304 -38.343
rtoes 7.93632
lfemur -24.836 -27.9999 -8.32423
ltibia 3.82183
lfoot -2.65608 -0.534186
ltoes -18.7006
